<?xml version="1.0" standalone="no"?>
<!DOCTYPE svg PUBLIC "-//W3C//DTD SVG 20010904//EN"
 "http://www.w3.org/TR/2001/REC-SVG-20010904/DTD/svg10.dtd">
<svg version="1.0" xmlns="http://www.w3.org/2000/svg"
 width="70.000000pt" height="70.000000pt" viewBox="0 0 70.000000 70.000000"
 preserveAspectRatio="xMidYMid meet">
<metadata>
Created by potrace 1.11, written by Peter Selinger 2001-2013
</metadata>
<g transform="translate(0.000000,70.000000) scale(0.100000,-0.100000)"
fill="#000000" stroke="none">
<path d="M200 360 l0 -180 105 0 105 0 0 25 c0 24 -2 25 -70 25 l-70 0 0 50 0
50 65 0 65 0 0 30 0 30 -65 0 -65 0 0 50 0 50 70 0 c68 0 70 1 70 25 l0 25
-105 0 -105 0 0 -180z"/>
<path d="M480 251 c-21 -41 1 -78 40 -66 25 8 29 69 4 79 -25 10 -33 7 -44
-13z"/>
</g>
</svg>
